{
	"asset":{
		"generator":"Khronos glTF Blender I/O v4.1.63",
		"version":"2.0"
	},
	"scene":0,
	"scenes":[
		{
			"name":"Scene",
			"nodes":[
				0,
				1
			]
		}
	],
	"nodes":[
		{
			"mesh":0,
			"name":"Island_noRoad",
			"translation":[
				0,
				0.01669757254421711,
				0
			]
		},
		{
			"mesh":1,
			"name":"Island_Road",
			"translation":[
				0,
				0.01669757254421711,
				0
			]
		}
	],
	"materials":[
		{
			"doubleSided":true,
			"name":"Dirt",
			"pbrMetallicRoughness":{
				"baseColorFactor":[
					0.5049757361412048,
					0.11961168050765991,
					0.017647698521614075,
					1
				],
				"metallicFactor":0,
				"roughnessFactor":0.5
			}
		},
		{
			"doubleSided":true,
			"name":"Grass",
			"pbrMetallicRoughness":{
				"baseColorFactor":[
					0.20475199818611145,
					0.8004156351089478,
					0.10154403746128082,
					1
				],
				"metallicFactor":0,
				"roughnessFactor":0.5
			}
		},
		{
			"doubleSided":true,
			"name":"Rock",
			"pbrMetallicRoughness":{
				"baseColorFactor":[
					0.1530367136001587,
					0.14559796452522278,
					0.16067716479301453,
					1
				],
				"metallicFactor":0,
				"roughnessFactor":0.5
			}
		},
		{
			"doubleSided":true,
			"name":"Dirt.001",
			"pbrMetallicRoughness":{
				"baseColorFactor":[
					0.5049757361412048,
					0.11961168050765991,
					0.017647698521614075,
					1
				],
				"metallicFactor":0,
				"roughnessFactor":0.5
			}
		},
		{
			"doubleSided":true,
			"name":"Grass.001",
			"pbrMetallicRoughness":{
				"baseColorFactor":[
					0.20475199818611145,
					0.8004156351089478,
					0.10154403746128082,
					1
				],
				"metallicFactor":0,
				"roughnessFactor":0.5
			}
		},
		{
			"doubleSided":true,
			"name":"Rock.001",
			"pbrMetallicRoughness":{
				"baseColorFactor":[
					0.1530367136001587,
					0.14559796452522278,
					0.16067716479301453,
					1
				],
				"metallicFactor":0,
				"roughnessFactor":0.5
			}
		}
	],
	"meshes":[
		{
			"name":"Sphere.001",
			"primitives":[
				{
					"attributes":{
						"POSITION":0,
						"NORMAL":1,
						"TEXCOORD_0":2
					},
					"indices":3,
					"material":0
				},
				{
					"attributes":{
						"POSITION":4,
						"NORMAL":5,
						"TEXCOORD_0":6
					},
					"indices":7,
					"material":1
				},
				{
					"attributes":{
						"POSITION":8,
						"NORMAL":9,
						"TEXCOORD_0":10
					},
					"indices":11,
					"material":2
				}
			]
		},
		{
			"name":"Sphere.002",
			"primitives":[
				{
					"attributes":{
						"POSITION":12,
						"NORMAL":13,
						"TEXCOORD_0":14
					},
					"indices":3,
					"material":3
				},
				{
					"attributes":{
						"POSITION":15,
						"NORMAL":16,
						"TEXCOORD_0":17
					},
					"indices":7,
					"material":4
				},
				{
					"attributes":{
						"POSITION":18,
						"NORMAL":19,
						"TEXCOORD_0":20
					},
					"indices":11,
					"material":5
				}
			]
		}
	],
	"accessors":[
		{
			"bufferView":0,
			"componentType":5126,
			"count":960,
			"max":[
				1.197650671005249,
				-0.09470802545547485,
				1.0294554233551025
			],
			"min":[
				-1.1383150815963745,
				-0.7979047894477844,
				-1.1409153938293457
			],
			"type":"VEC3"
		},
		{
			"bufferView":1,
			"componentType":5126,
			"count":960,
			"type":"VEC3"
		},
		{
			"bufferView":2,
			"componentType":5126,
			"count":960,
			"type":"VEC2"
		},
		{
			"bufferView":3,
			"componentType":5123,
			"count":1440,
			"type":"SCALAR"
		},
		{
			"bufferView":4,
			"componentType":5126,
			"count":517,
			"max":[
				1.197650671005249,
				0.03228449448943138,
				1.1141176223754883
			],
			"min":[
				-1.2332618236541748,
				-0.18315529823303223,
				-1.1795899868011475
			],
			"type":"VEC3"
		},
		{
			"bufferView":5,
			"componentType":5126,
			"count":517,
			"type":"VEC3"
		},
		{
			"bufferView":6,
			"componentType":5126,
			"count":517,
			"type":"VEC2"
		},
		{
			"bufferView":7,
			"componentType":5123,
			"count":840,
			"type":"SCALAR"
		},
		{
			"bufferView":8,
			"componentType":5126,
			"count":256,
			"max":[
				0.6347373127937317,
				-0.7064380049705505,
				0.5209089517593384
			],
			"min":[
				-0.6405804753303528,
				-0.8057184815406799,
				-0.6182119846343994
			],
			"type":"VEC3"
		},
		{
			"bufferView":9,
			"componentType":5126,
			"count":256,
			"type":"VEC3"
		},
		{
			"bufferView":10,
			"componentType":5126,
			"count":256,
			"type":"VEC2"
		},
		{
			"bufferView":11,
			"componentType":5123,
			"count":384,
			"type":"SCALAR"
		},
		{
			"bufferView":12,
			"componentType":5126,
			"count":960,
			"max":[
				1.197650671005249,
				-0.09470802545547485,
				1.0294554233551025
			],
			"min":[
				-1.1383150815963745,
				-0.7979047894477844,
				-1.1409153938293457
			],
			"type":"VEC3"
		},
		{
			"bufferView":13,
			"componentType":5126,
			"count":960,
			"type":"VEC3"
		},
		{
			"bufferView":14,
			"componentType":5126,
			"count":960,
			"type":"VEC2"
		},
		{
			"bufferView":15,
			"componentType":5126,
			"count":517,
			"max":[
				1.197650671005249,
				0.03228449448943138,
				1.1141176223754883
			],
			"min":[
				-1.2332618236541748,
				-0.18315529823303223,
				-1.1795899868011475
			],
			"type":"VEC3"
		},
		{
			"bufferView":16,
			"componentType":5126,
			"count":517,
			"type":"VEC3"
		},
		{
			"bufferView":17,
			"componentType":5126,
			"count":517,
			"type":"VEC2"
		},
		{
			"bufferView":18,
			"componentType":5126,
			"count":256,
			"max":[
				0.6347373127937317,
				-0.7064380049705505,
				0.5209089517593384
			],
			"min":[
				-0.6405804753303528,
				-0.8057184815406799,
				-0.6182119846343994
			],
			"type":"VEC3"
		},
		{
			"bufferView":19,
			"componentType":5126,
			"count":256,
			"type":"VEC3"
		},
		{
			"bufferView":20,
			"componentType":5126,
			"count":256,
			"type":"VEC2"
		}
	],
	"bufferViews":[
		{
			"buffer":0,
			"byteLength":11520,
			"byteOffset":0,
			"target":34962
		},
		{
			"buffer":0,
			"byteLength":11520,
			"byteOffset":11520,
			"target":34962
		},
		{
			"buffer":0,
			"byteLength":7680,
			"byteOffset":23040,
			"target":34962
		},
		{
			"buffer":0,
			"byteLength":2880,
			"byteOffset":30720,
			"target":34963
		},
		{
			"buffer":0,
			"byteLength":6204,
			"byteOffset":33600,
			"target":34962
		},
		{
			"buffer":0,
			"byteLength":6204,
			"byteOffset":39804,
			"target":34962
		},
		{
			"buffer":0,
			"byteLength":4136,
			"byteOffset":46008,
			"target":34962
		},
		{
			"buffer":0,
			"byteLength":1680,
			"byteOffset":50144,
			"target":34963
		},
		{
			"buffer":0,
			"byteLength":3072,
			"byteOffset":51824,
			"target":34962
		},
		{
			"buffer":0,
			"byteLength":3072,
			"byteOffset":54896,
			"target":34962
		},
		{
			"buffer":0,
			"byteLength":2048,
			"byteOffset":57968,
			"target":34962
		},
		{
			"buffer":0,
			"byteLength":768,
			"byteOffset":60016,
			"target":34963
		},
		{
			"buffer":0,
			"byteLength":11520,
			"byteOffset":60784,
			"target":34962
		},
		{
			"buffer":0,
			"byteLength":11520,
			"byteOffset":72304,
			"target":34962
		},
		{
			"buffer":0,
			"byteLength":7680,
			"byteOffset":83824,
			"target":34962
		},
		{
			"buffer":0,
			"byteLength":6204,
			"byteOffset":91504,
			"target":34962
		},
		{
			"buffer":0,
			"byteLength":6204,
			"byteOffset":97708,
			"target":34962
		},
		{
			"buffer":0,
			"byteLength":4136,
			"byteOffset":103912,
			"target":34962
		},
		{
			"buffer":0,
			"byteLength":3072,
			"byteOffset":108048,
			"target":34962
		},
		{
			"buffer":0,
			"byteLength":3072,
			"byteOffset":111120,
			"target":34962
		},
		{
			"buffer":0,
			"byteLength":2048,
			"byteOffset":114192,
			"target":34962
		}
	],
	"buffers":[
		{
			"byteLength":116240,
			"uri":"web%20Models.bin"
		}
	]
}
